<?xml version="1.0" encoding="UTF-8" standalone="no"?>
<!-- Created with Inkscape (http://www.inkscape.org/) -->

<svg
   xmlns:dc="http://purl.org/dc/elements/1.1/"
   xmlns:cc="http://creativecommons.org/ns#"
   xmlns:rdf="http://www.w3.org/1999/02/22-rdf-syntax-ns#"
   xmlns:svg="http://www.w3.org/2000/svg"
   xmlns="http://www.w3.org/2000/svg"
   xmlns:sodipodi="http://sodipodi.sourceforge.net/DTD/sodipodi-0.dtd"
   xmlns:inkscape="http://www.inkscape.org/namespaces/inkscape"
   width="62.106712mm"
   height="13.429749mm"
   viewBox="0 0 62.106712 13.42975"
   version="1.1"
   id="svg1867"
   sodipodi:docname="isologo-blanco.svg"
   inkscape:version="0.92.3 (2405546, 2018-03-11)">
  <defs
     id="defs1861" />
  <sodipodi:namedview
     id="base"
     pagecolor="#ffffff"
     bordercolor="#666666"
     borderopacity="1.0"
     inkscape:pageopacity="0.0"
     inkscape:pageshadow="2"
     inkscape:zoom="2.8"
     inkscape:cx="102.15213"
     inkscape:cy="-44.076977"
     inkscape:document-units="mm"
     inkscape:current-layer="g26-4-2-1"
     showgrid="false"
     fit-margin-top="2.7"
     fit-margin-left="3"
     fit-margin-right="3"
     fit-margin-bottom="2"
     inkscape:pagecheckerboard="true"
     inkscape:window-width="1920"
     inkscape:window-height="1000"
     inkscape:window-x="0"
     inkscape:window-y="48"
     inkscape:window-maximized="1" />
  <metadata
     id="metadata1864">
    <rdf:RDF>
      <cc:Work
         rdf:about="">
        <dc:format>image/svg+xml</dc:format>
        <dc:type
           rdf:resource="http://purl.org/dc/dcmitype/StillImage" />
        <dc:title></dc:title>
      </cc:Work>
    </rdf:RDF>
  </metadata>
  <g
     inkscape:label="Layer 1"
     inkscape:groupmode="layer"
     id="layer1"
     transform="translate(-75.1965,-98.330763)">
    <g
       transform="matrix(0.26458333,0,0,0.26458333,55.98413,24.898005)"
       style="font-style:normal;font-weight:normal;font-size:40px;line-height:1.25;font-family:sans-serif;letter-spacing:0px;word-spacing:0px;fill:#000000;fill-opacity:1;stroke:none"
       id="g1757">
      <g
         id="flowRoot1645"
         style="font-style:normal;font-weight:normal;font-size:40px;line-height:1.25;font-family:sans-serif;letter-spacing:0px;word-spacing:0px;fill:#ffffff;fill-opacity:1;stroke:none"
         aria-label="&lt;Salmorej    Tech/&gt;">
        <path
           id="path1707"
           style="font-style:normal;font-variant:normal;font-weight:normal;font-stretch:normal;font-family:'Amatic SC';-inkscape-font-specification:'Amatic SC';fill:#ffffff"
           d="m 91.312266,315.82019 q -0.16,0 -0.24,-0.04 l -0.28,-0.04 h -0.08 q -0.64,-0.96 -1.6,-3.12 l -0.68,-1.52 -2,-4.16 -0.4,-0.88 q -0.36,-0.6 -0.48,-0.96 -0.12,-0.36 -0.88,-1.36 -0.72,-0.96 -0.72,-1.56 0,-0.44 0.92,-2.72 l 2.08,-4.76 q 1.08,-2.36 1.36,-3.24 0,-0.12 0.24,-0.76 0.32,-1.36 0.76,-2.12 0.24,-0.48 0.52,-0.52 l 0.52,0.4 q -0.16,1.2 -0.96,3.16 -0.76,1.92 -1.76,3.92 -0.96,1.92 -1.64,3.76 -0.64,1.8 -0.64,2.84 0,0.32 2.72,5.92 2.76,5.6 3.44,6.72 l 0.36,0.28 q -0.08,0.24 -0.24,0.52 -0.16,0.24 -0.32,0.24 z"
           inkscape:connector-curvature="0" />
        <path
           id="path1709"
           style="font-style:normal;font-variant:normal;font-weight:normal;font-stretch:normal;font-family:'Amatic SC';-inkscape-font-specification:'Amatic SC';fill:#ffffff"
           d="m 99.344141,316.70019 q -0.72,0 -1.12,-0.08 -0.36,-0.04 -0.8,-0.24 -0.48,-0.24 -0.72,-0.68 0,-0.48 0.44,-0.48 0.44,0 1.12,0.28 0.64,0.32 1.08,0.32 0.879999,0 1.599999,-0.72 0.76,-0.72 1.16,-1.88 0.8,-2.28 0.8,-4.04 0,-1.96 -0.56,-3.96 -0.56,-2 -1.48,-3.76 -0.2,-0.44 -0.68,-1.32 -0.999999,-2 -1.519999,-3.12 -0.52,-1.12 -0.92,-2.48 -0.56,-1.8 -0.56,-3.88 0,-1.32 0.4,-2.52 0.44,-1.24 1.36,-2.12 1,-0.92 2.239999,-0.92 0.48,0 1.16,0.4 0.68,0.36 0.68,0.72 0,0.32 -0.24,0.32 -0.24,0 -0.64,-0.2 -0.36,-0.2 -0.68,-0.2 -0.92,0 -1.639999,0.68 -0.68,0.68 -1,1.68 -0.28,0.84 -0.28,1.84 0,1.56 0.4,3.24 0.4,1.64 1.079999,3.08 l 1.4,2.92 0.4,0.84 q 0.84,1.72 1.28,2.84 0.48,1.12 0.8,2.52 0.44,1.88 0.44,3.6 0,2.32 -1.2,4.72 -0.6,1.16 -1.6,1.88 -1,0.72 -2.199999,0.72 z"
           inkscape:connector-curvature="0" />
        <path
           id="path1711"
           style="font-style:normal;font-variant:normal;font-weight:normal;font-stretch:normal;font-family:'Amatic SC';-inkscape-font-specification:'Amatic SC';fill:#ffffff"
           d="m 117.61352,316.18019 q -0.6,0 -0.76,-0.16 -0.16,-0.12 -0.24,-0.72 -0.36,-2.92 -0.44,-3.64 l -0.2,-1.6 q -0.88,-0.2 -2,-0.2 l -1.44,-0.08 q -0.96,-0.12 -1.4,-0.12 -0.24,0 -0.28,0.2 0,0.12 -0.04,0.12 l -0.08,0.8 q -0.04,0.72 -0.44,2.88 -0.2,1.08 -0.48,1.68 -0.32,0.68 -0.6,0.68 -0.24,0 -0.52,-0.2 -0.28,-0.24 -0.28,-0.48 l 0.04,-0.12 0.04,-0.12 q 0.72,-2.84 1.2,-5.64 l 0.48,-2.48 0.48,-3.04 q 0,0 0.44,-2.64 0.2,-1.08 0.72,-3.48 0.56,-2.72 0.68,-3.72 0.04,-0.12 0.16,-1.48 0.16,-1.52 0.28,-2.24 0.12,-1.04 0.24,-1.2 h 0.28 q 0.12,0.04 0.28,0.04 0.48,0 0.72,-0.24 0.28,0 0.48,0.2 0.24,0.16 0.24,0.4 0,1.92 0.28,4.4 0.16,1.28 0.24,2.12 0.44,5.16 2.24,19.36 v 0.12 q 0,0.4 -0.32,0.6 z m -1.84,-7.2 q -0.4,-5.76 -1.52,-17 l -2.16,10.68 q -0.92,4.6 -0.92,5.8 0,0.2 1.52,0.36 1.52,0.16 2.68,0.16 z"
           inkscape:connector-curvature="0" />
        <path
           id="path1713"
           style="font-style:normal;font-variant:normal;font-weight:normal;font-stretch:normal;font-family:'Amatic SC';-inkscape-font-specification:'Amatic SC';fill:#ffffff"
           d="m 122.95352,316.34019 q -0.56,0 -0.68,-0.92 0.08,-0.24 0.08,-1.32 0,-3.68 0.12,-10.92 0.12,-7.2 0.12,-10.4 l 0.08,-1.44 0.12,-1.2 q 0,-0.28 0.28,-0.28 0.2,0 0.56,0.12 l 0.12,0.04 q 0,0.88 -0.04,1.6 v 1.56 4.36 q 0.04,1.92 0.04,4.36 -0.04,0.2 -0.04,0.88 l -0.04,0.84 q -0.04,0.8 -0.04,1.64 0,0.92 0.04,1.68 l 0.04,1.72 -0.12,0.32 0.04,-0.04 q 0,0.12 -0.04,0.16 v 0.16 q 0,0.32 0.12,0.56 l -0.12,3.84 v 0.24 q 0,0.68 0.04,0.8 0,0.2 0.2,0.2 l 2.08,0.08 q 0.92,0 1.24,0.04 0.36,0 0.44,0 h 0.12 q 0.2,0 0.4,0.24 0.2,0.2 0.2,0.44 0,0.48 -0.64,0.52 -0.68,-0.04 -3.32,-0.04 l 0.08,0.04 q -0.4,0 -0.76,0.04 -0.32,0.08 -0.72,0.08 z"
           inkscape:connector-curvature="0" />
        <path
           id="path1715"
           style="font-style:normal;font-variant:normal;font-weight:normal;font-stretch:normal;font-family:'Amatic SC';-inkscape-font-specification:'Amatic SC';fill:#ffffff"
           d="m 147.95539,317.90019 q -0.8,0 -0.8,-2.56 v -2.64 q 0,-5.76 -0.24,-9 l -0.12,-1.48 q -0.16,-1 -0.16,-1.76 0,-1.36 0.08,-2.48 l 0.08,-2.48 q 0,-1.24 -0.16,-1.88 -0.8,0.56 -4.84,16.84 l -0.04,0.6 q -0.12,1 -0.32,1.6 -0.12,0.44 -0.36,0.68 -0.2,0.24 -0.48,0.24 -0.64,0 -0.92,-0.32 -0.28,-0.32 -0.28,-1 0,-1.08 -1.04,-5.6 -1,-4.52 -2.2,-8.68 -1.16,-4.16 -1.6,-4.6 -0.04,1.4 -0.32,6.6 -0.56,9.2 -0.56,14.48 l 0.04,1.6 q -0.16,0.52 -0.84,0.52 -0.12,0 -0.4,-0.24 -0.28,-0.2 -0.28,-0.32 0,-3.6 0.64,-12.64 0.6,-8.4 0.6,-12.6 0,-0.2 -0.08,-0.4 -0.12,-0.24 -0.12,-0.36 0,-0.6 1.04,-0.6 0.68,0 0.8,0.6 0.16,0.8 0.16,1.2 l 0.04,0.48 q 0.2,1.04 1.16,3.2 0.76,1.72 1.16,3 0.24,0.96 0.44,1.56 0.64,2.32 0.84,3.44 l 0.52,1.04 q 0.12,0.6 0.48,1.96 0.36,1.52 0.52,2.48 0.16,0.96 0.16,1.84 0.44,-0.68 2.48,-8.16 2.08,-7.52 2.44,-9.6 0.04,-0.08 0.04,-0.2 0.04,-0.16 0.08,-0.4 0.08,-0.52 0.36,-1.56 0.32,-0.8 0.96,-0.8 0.28,0 0.64,0.24 0.36,0.24 0.36,0.48 0,16.68 0.52,17.64 v 2.08 q -0.04,0.92 -0.04,2.12 0,2.56 0.28,3.84 0.04,0.04 0.04,0.12 0.04,0.08 0.08,0.2 0.04,0.16 0.04,0.36 0,0.44 -0.28,0.88 -0.24,0.44 -0.6,0.44 z m -1.32,-24.52 h -0.04 l -0.08,0.04 0.12,0.04 z"
           inkscape:connector-curvature="0" />
        <path
           id="path1717"
           style="font-style:normal;font-variant:normal;font-weight:normal;font-stretch:normal;font-family:'Amatic SC';-inkscape-font-specification:'Amatic SC';fill:#ffffff"
           d="m 158.97164,316.58019 q -4.68,0 -4.68,-14.72 v -1.4 q 0,-11.16 2.88,-11.16 0.2,0 0.56,0.12 1.28,0.44 2.52,0.56 0.76,0.16 1.52,1.56 0.84,1.44 1.24,3.8 0.44,2.36 0.44,4.84 l -0.08,0.2 q 0,1.32 0.04,2.36 l 0.04,2.4 q 0,2.04 -0.16,3.68 -0.24,2.48 -0.8,4.28 -0.36,1.08 -0.84,1.8 -0.44,0.72 -1.12,1.2 -0.64,0.48 -1.56,0.48 z m -0.16,-1.16 q 1.56,0 2.32,-2.2 0.76,-2.24 0.92,-4.56 0.16,-2.4 0.16,-3.84 0,-1.6 -0.24,-4.72 -0.2,-3.48 -0.2,-4.72 l -0.16,-0.32 0.08,-0.2 q 0,-1.76 -1,-3.04 -0.96,-1.28 -2.36,-1.28 -1.84,0 -2.2,1.76 -0.08,0.6 -0.16,1.72 0,2.96 -0.24,4.04 0,0.6 -0.12,1.88 l -0.08,1.88 q 0,0.88 0.04,1.56 l 0.04,1.6 q 0,1.88 0.32,4.32 0.24,1.8 0.56,3.04 0.32,1.24 0.92,2.12 0.6,0.96 1.4,0.96 z"
           inkscape:connector-curvature="0" />
        <path
           id="path1719"
           style="font-style:normal;font-variant:normal;font-weight:normal;font-stretch:normal;font-family:'Amatic SC';-inkscape-font-specification:'Amatic SC';fill:#ffffff"
           d="m 174.75977,316.30019 q -0.48,-0.52 -1.04,-2.76 -0.56,-2.24 -1.04,-5.04 -0.32,-2.28 -0.92,-4.52 -0.48,-2 -0.92,-2 h -0.12 q -0.88,0 -0.88,0.56 0,2.88 0.32,8.76 0.16,3.6 0.36,4.2 l -0.32,0.68 h -0.56 l -0.32,-0.32 q -0.64,-18.48 -0.64,-25.2 0,-0.44 0.04,-0.72 0.08,-0.28 0.28,-0.52 0.16,-0.28 0.56,-0.28 2.04,0 3.28,1 1.24,1 1.24,2.88 v 2.92 q 0,0.76 -0.52,2.04 -0.48,1.28 -1.08,2.36 l -0.52,1 q 0.44,2.04 1.72,7.36 1.32,5.28 1.44,5.6 0.04,0.04 0.08,0.2 0.08,0.16 0.28,0.48 0.28,0.56 0.28,0.96 0,0.56 -0.44,0.56 z m -4.72,-15.32 q 0.76,0 1.36,-0.76 0.6,-0.76 0.96,-1.96 0.64,-2.44 0.64,-3.88 0,-0.92 -0.12,-1.52 -0.08,-0.6 -0.32,-1.28 -0.48,-1.4 -2.28,-1.4 -0.2,0 -0.32,0.36 -0.12,0.32 -0.12,0.68 0,2.68 0.08,4.84 0.04,2.16 0.04,4.84 z"
           inkscape:connector-curvature="0" />
        <path
           id="path1721"
           style="font-style:normal;font-variant:normal;font-weight:normal;font-stretch:normal;font-family:'Amatic SC';-inkscape-font-specification:'Amatic SC';fill:#ffffff"
           d="m 180.96227,316.34019 q -0.72,0 -0.8,-0.84 v -0.52 q 0.04,-0.2 0.04,-0.48 l -0.16,-0.16 q 0.32,-0.84 0.32,-1.64 0,-0.92 -0.12,-2.64 l -0.08,-2.64 q 0,-2 0.12,-6 0.16,-3.56 0.16,-6.04 l -0.08,-2.4 q -0.08,-1.08 -0.08,-2.4 0,-0.6 0.28,-0.84 0.28,-0.28 0.88,-0.28 0.4,0 0.64,0.24 0.08,0.04 1.16,0.16 1,0.12 1.72,0.36 0.76,0.24 0.76,0.6 0,0.4 -0.76,0.8 -2.28,-0.76 -3.24,-0.76 l -0.2,0.24 q 0.04,0.36 0.04,1.72 0,1.72 -0.08,3.08 -0.04,1.4 -0.04,3.12 0,1.12 0.56,1.12 l 0.64,-0.04 q 0.32,-0.04 0.68,-0.04 1.56,0 1.56,0.72 0,0.44 -0.2,0.76 -0.2,0.28 -0.6,0.28 -0.6,0 -0.92,-0.32 l -1.28,-0.2 h -0.2 l -0.2,0.2 v 0.12 q 0.08,0.68 0.08,3.16 0,1.56 -0.04,2.84 l -0.04,2.84 q 0,1.56 0.12,3.2 0.04,0.92 0.4,1.24 0.36,0.28 1.32,0.28 l 0.72,-0.04 q 0.36,-0.04 0.8,-0.04 1.16,0 1.16,0.52 0,0.72 -1.76,0.72 z"
           inkscape:connector-curvature="0" />
        <path
           id="path1723"
           style="font-style:normal;font-variant:normal;font-weight:normal;font-stretch:normal;font-family:'Amatic SC';-inkscape-font-specification:'Amatic SC';fill:#ffffff"
           d="m 187.87664,319.82019 v -0.08 l -0.04,-0.08 q 0,-0.12 0.68,-0.56 0.64,-0.48 1.44,-0.96 0.88,-0.6 0.92,-0.68 0.6,-0.68 0.92,-2.12 0.36,-1.48 0.36,-2.88 0,-4.28 -0.16,-10.64 -0.2,-5.92 -0.2,-10.6 l -0.24,-0.44 q -0.28,-0.08 -0.96,-0.2 -0.76,-0.04 -1.36,-0.32 -0.6,-0.2 -0.6,-0.52 0,-0.16 0.32,-0.32 0.32,-0.16 0.52,-0.16 0.76,0 2.4,0.28 1.68,0.28 2.96,0.68 1.32,0.4 1.32,0.72 0,0.24 -0.2,0.4 -0.16,0.12 -0.44,0.12 -0.28,0 -1.08,-0.2 -0.6,-0.2 -1.08,-0.2 -0.36,0 -0.36,0.8 0,2.2 0.2,8.32 0.2,4.6 0.2,8.28 v 4.4 q -0.24,0.52 -0.24,1.68 0,1.68 -0.96,3.8 -0.52,1.08 -1.36,1.72 -0.8,0.68 -1.76,0.68 h -0.28 z"
           inkscape:connector-curvature="0" />
        <path
           id="path1725"
           style="font-style:normal;font-variant:normal;font-weight:normal;font-stretch:normal;font-family:'Amatic SC';-inkscape-font-specification:'Amatic SC';fill:#ffffff"
           d="m 231.26602,316.06019 q -0.4,0 -0.6,-0.28 -0.2,-0.32 -0.2,-0.76 v -3.56 -3.56 l -0.08,-6.4 q -0.12,-4.28 -0.12,-6.4 l 0.04,-1.16 v -2.6 q 0,-4.32 -0.08,-4.32 h -4.52 q -0.32,0 -0.6,-0.16 -0.24,-0.16 -0.24,-0.44 0,-0.32 0.12,-0.44 0.12,-0.12 0.64,-0.2 0.56,-0.12 1.6,-0.12 h 4 l 4.4,-0.04 q 0.48,0 0.64,0.16 0.2,0.16 0.2,0.52 0,0.6 -0.76,0.6 h -1.8 -1.76 l -0.36,0.04 0.04,2.32 v 3.12 16.24 3.32 l 0.04,2.96 v 0.08 q 0,0.32 -0.04,0.56 -0.04,0.2 -0.16,0.32 -0.12,0.2 -0.4,0.2 z"
           inkscape:connector-curvature="0" />
        <path
           id="path1727"
           style="font-style:normal;font-variant:normal;font-weight:normal;font-stretch:normal;font-family:'Amatic SC';-inkscape-font-specification:'Amatic SC';fill:#ffffff"
           d="m 241.04039,316.34019 q -0.72,0 -0.8,-0.84 v -0.52 q 0.04,-0.2 0.04,-0.48 l -0.16,-0.16 q 0.32,-0.84 0.32,-1.64 0,-0.92 -0.12,-2.64 l -0.08,-2.64 q 0,-2 0.12,-6 0.16,-3.56 0.16,-6.04 l -0.08,-2.4 q -0.08,-1.08 -0.08,-2.4 0,-0.6 0.28,-0.84 0.28,-0.28 0.88,-0.28 0.4,0 0.64,0.24 0.08,0.04 1.16,0.16 1,0.12 1.72,0.36 0.76,0.24 0.76,0.6 0,0.4 -0.76,0.8 -2.28,-0.76 -3.24,-0.76 l -0.2,0.24 q 0.04,0.36 0.04,1.72 0,1.72 -0.08,3.08 -0.04,1.4 -0.04,3.12 0,1.12 0.56,1.12 l 0.64,-0.04 q 0.32,-0.04 0.68,-0.04 1.56,0 1.56,0.72 0,0.44 -0.2,0.76 -0.2,0.28 -0.6,0.28 -0.6,0 -0.92,-0.32 l -1.28,-0.2 h -0.2 l -0.2,0.2 v 0.12 q 0.08,0.68 0.08,3.16 0,1.56 -0.04,2.84 l -0.04,2.84 q 0,1.56 0.12,3.2 0.04,0.92 0.4,1.24 0.36,0.28 1.32,0.28 l 0.72,-0.04 q 0.36,-0.04 0.8,-0.04 1.16,0 1.16,0.52 0,0.72 -1.76,0.72 z"
           inkscape:connector-curvature="0" />
        <path
           id="path1729"
           style="font-style:normal;font-variant:normal;font-weight:normal;font-stretch:normal;font-family:'Amatic SC';-inkscape-font-specification:'Amatic SC';fill:#ffffff"
           d="m 253.47477,316.10019 q -0.76,-0.24 -1.32,-0.68 -0.52,-0.44 -1,-1.32 -0.84,-1.6 -1,-4.6 -0.08,-1.36 -0.08,-2.4 v -4.56 q 0,-2.6 0.16,-5.04 0.12,-1.8 0.36,-3.04 0.24,-1.24 0.76,-2.48 0.56,-1.28 1.24,-1.8 0.28,-0.24 1.08,-0.56 0.52,-0.2 1,-0.44 h 1.6 0.12 q 0.04,0.04 0.12,0.04 l 0.2,0.04 0.16,0.12 q 0.12,0.12 0.12,0.16 0.04,0.08 0.04,0.24 l -0.52,0.6 h -1.68 q -0.76,0 -1.4,0.76 -0.6,0.72 -0.92,1.84 -0.32,1 -0.52,2.36 -0.2,1.36 -0.24,2.36 -0.08,1.28 -0.08,1.76 l -0.08,0.2 q 0,2.24 -0.08,4.04 l -0.08,4.04 q 0,1.76 0.24,3.24 0.2,1.6 1.16,2.88 0.92,1.28 2.84,1.28 0.6,0 1,-0.36 0.6,0 0.6,0.44 0,0.28 -0.52,0.64 -0.48,0.4 -1,0.6 h -1.32 z"
           inkscape:connector-curvature="0" />
        <path
           id="path1731"
           style="font-style:normal;font-variant:normal;font-weight:normal;font-stretch:normal;font-family:'Amatic SC';-inkscape-font-specification:'Amatic SC';fill:#ffffff"
           d="m 269.12102,316.26019 q 0,-0.4 -1.2,-0.4 -0.2,-7.4 -0.2,-10.72 l -0.12,-0.16 0.16,-0.36 q 0,-0.72 -0.16,-1.48 l -0.6,-0.16 q -0.36,0.12 -0.8,0.12 -0.32,0 -1.32,-0.2 -0.68,-0.2 -1.24,-0.2 l -0.44,0.16 q 0,1.4 -0.04,2.52 -0.04,1.12 -0.04,2.52 l 0.08,0.16 q 0,1.12 0.12,3.36 0.12,2.2 0.12,3.32 0,0.44 -0.16,0.76 -0.16,0.28 -0.48,0.28 -0.88,0 -0.88,-2.4 0,-2.04 0.04,-3.68 l 0.04,-3.64 q 0,-3.64 -0.12,-3.92 0.2,-0.4 0.2,-2.64 0,-1.92 -0.16,-4.68 l -0.08,-1.56 -0.08,-3.12 q 0,-0.28 0.2,-0.52 0.2,-0.24 0.48,-0.24 0.8,0 0.8,2.32 0,2.72 -0.04,4.92 -0.08,2.2 -0.08,4.84 0,0.48 3.04,0.48 h 0.16 q 0.76,0 1.08,-0.28 0.36,-0.32 0.36,-1.04 0,-2.12 -0.28,-5.52 -0.24,-3.68 -0.24,-5.52 0,-0.24 0.2,-0.4 0.2,-0.2 0.48,-0.2 l 0.36,0.12 q 0.28,0.04 0.36,0.12 0,3.12 0.24,9.32 0.24,6.24 0.24,9.36 0,4.72 0.28,7.92 z m -2.52,-14.88 0.08,0.08 h -0.08 z"
           inkscape:connector-curvature="0" />
        <path
           id="path1733"
           style="font-style:normal;font-variant:normal;font-weight:normal;font-stretch:normal;font-family:'Amatic SC';-inkscape-font-specification:'Amatic SC';fill:#ffffff"
           d="m 275.48789,315.94019 q -0.36,-0.24 -0.36,-0.72 0,-0.84 0.2,-1.88 0.2,-1.04 0.64,-2.84 l 0.56,-2.24 q 2.56,-11.36 5,-20.72 l 0.08,-0.24 q 0.04,-0.24 0.12,-0.48 0.08,-0.28 0.12,-0.4 l 0.2,-0.4 q 0.08,-0.12 0.16,-0.12 0.6,0 0.6,0.52 0,0.04 -0.2,0.96 l -0.4,1.72 -0.2,1 -1.52,6.72 -3,13.16 -0.8,3.48 q -0.04,0.12 -0.12,0.56 -0.08,0.32 -0.32,1.24 -0.24,0.6 -0.76,0.68 z"
           inkscape:connector-curvature="0" />
        <path
           id="path1735"
           style="font-style:normal;font-variant:normal;font-weight:normal;font-stretch:normal;font-family:'Amatic SC';-inkscape-font-specification:'Amatic SC';fill:#ffffff"
           d="m 288.64914,315.82019 q -0.16,0 -0.36,-0.24 -0.16,-0.28 -0.2,-0.52 l 0.36,-0.28 q 0.84,-1.52 3.48,-6.92 2.68,-5.44 2.68,-5.72 0,-1.04 -0.68,-2.84 -0.64,-1.84 -1.6,-3.76 -1,-2 -1.8,-3.92 -0.76,-1.96 -0.92,-3.16 l 0.52,-0.4 q 0.24,0.04 0.52,0.52 0.28,0.44 0.44,0.96 0.04,0.16 0.32,1.12 l 0.24,0.8 q 0.28,0.88 1.36,3.24 l 0.72,1.68 1.32,3.08 q 0.96,2.2 0.96,2.72 0,0.6 -0.72,1.56 -0.76,1 -0.88,1.36 l -0.48,1 q -0.36,0.64 -0.4,0.84 l -3.44,7.12 -0.84,1.68 -0.32,0.04 z"
           inkscape:connector-curvature="0" />
      </g>
      <g
         id="g26-4-2-1"
         style="opacity:0.98999999;stroke:#000000;stroke-width:1.27603745;stroke-miterlimit:4;stroke-dasharray:none;stroke-opacity:1"
         transform="matrix(0.99702308,0,0,0.99702308,99.3566,145.58829)">
        <path
           inkscape:connector-curvature="0"
           id="path6-0-9-1-0-1"
           d="m 119.93524,150.12317 c 3.29107,1.89316 5.3994,4.94069 5.3994,8.44997 0,5.72567 -5.75936,10.34315 -12.85571,10.34315 -7.09636,0 -12.855717,-4.61748 -12.855717,-10.34315 0,-3.41693 2.056917,-6.41829 5.193707,-8.31145"
           style="opacity:1;fill:none;stroke:#ffffff;stroke-width:1.27603745;stroke-linecap:round;stroke-linejoin:round;stroke-miterlimit:4;stroke-dasharray:none;stroke-opacity:1" />
        <path
           id="path8-2-0-5-0-0"
           d="m 117.87833,148.50705 c -0.20569,0.64645 -0.51423,1.38524 -1.23415,1.93934 -3.03395,2.26256 -6.99351,1.47759 -8.79331,0 -0.71992,-0.60027 -1.02846,-1.33907 -1.23415,-1.93934 -0.30854,-1.06202 -0.20569,-1.93934 -0.20569,-1.93934 0,0 1.18273,-0.13852 2.4683,0.27705 0.4628,0.13852 0.92561,0.3694 1.33699,0.64645 0.30854,-1.52377 1.43984,-2.58579 1.85122,-2.90901 l 0.15427,-0.13853 0.15427,0.13853 c 0.41138,0.32322 1.59411,1.38524 1.85122,2.90901 0.46281,-0.27705 0.92562,-0.50793 1.337,-0.64645 1.33699,-0.41557 2.4683,-0.27705 2.4683,-0.27705 0,0 0.20569,0.9235 -0.15427,1.93934 z"
           stroke-miterlimit="10"
           inkscape:connector-curvature="0"
           style="opacity:1;fill:none;fill-opacity:1;stroke:#ffffff;stroke-width:1.27750383;stroke-linejoin:round;stroke-miterlimit:4;stroke-dasharray:none;stroke-opacity:1" />
      </g>
    </g>
  </g>
</svg>
